# This file uses centimeters as units for non-parametric coordinates.

mtllib view4.mtl
g default
v -13.809531 24.980588 0.000000
v -11.161128 24.350016 0.000000
v -11.287242 20.270389 0.000000
v -5.065596 22.536784 0.000000
v 1.156050 24.803180 0.000000
v 7.377695 27.069577 0.000000
v 12.845354 24.932958 0.000000
v 18.313013 22.796342 0.000000
v 19.091683 11.078690 0.000000
v 17.956653 10.088093 0.000000
v 17.326081 16.068310 0.000000
v 1.071973 5.871360 0.000000
v 1.071973 0.267368 0.000000
v -0.189172 -1.246005 0.000000
v -1.828659 -0.363204 0.000000
v -1.576431 3.957661 0.000000
v -11.791700 7.881864 0.000000
v -11.917815 3.972316 0.000000
v -13.809531 5.233460 0.000000
vt 0.143396 0.000000
vt 0.656604 0.000000
vt 0.637736 0.079245
vt 0.562264 0.075472
vt 0.777359 0.633962
vt 0.633962 1.000000
vt 0.271698 1.000000
vt 0.222642 0.966038
vt 0.479245 0.947170
vt 0.154717 0.445283
vt 0.045283 0.445283
vt 0.000000 0.407547
vt 0.026415 0.358491
vt 0.120755 0.366038
vt 0.222642 0.060377
vt 0.105660 0.056604
vt 0.705660 0.816981
vt 0.633962 0.261635
vt 0.705660 0.447799
vn 0.000000 0.000000 -1.000000
vn 0.000000 0.000000 -1.000000
vn 0.000000 0.000000 -1.000000
vn 0.000000 0.000000 -1.000000
vn 0.000000 0.000000 -1.000000
vn 0.000000 0.000000 -1.000000
vn 0.000000 0.000000 -1.000000
vn 0.000000 0.000000 -1.000000
vn 0.000000 0.000000 -1.000000
vn 0.000000 0.000000 -1.000000
vn 0.000000 0.000000 -1.000000
vn 0.000000 0.000000 -1.000000
vn 0.000000 0.000000 -1.000000
vn 0.000000 0.000000 -1.000000
vn 0.000000 0.000000 -1.000000
vn 0.000000 0.000000 -1.000000
vn 0.000000 0.000000 -1.000000
vn 0.000000 0.000000 -1.000000
vn 0.000000 0.000000 -1.000000
s off
g polySurface1
usemtl initialShadingGroup
f 1/2/1 2/3/2 3/4/3 4/18/4 5/19/5 6/5/6 7/17/7 8/6/8 9/7/9 10/8/10 11/9/11 12/10/12 13/11/13 14/12/14 15/13/15 16/14/16 17/15/17 18/16/18 19/1/19
g default
v -8.494406 20.310690 0.000000
v -2.689478 22.814659 0.000000
v 7.017670 18.141097 0.000000
v 0.604153 14.527745 0.000000
vt 0.000000 0.000000
vt 0.501419 0.000000
vt 1.000000 0.666982
vt 0.329234 0.751183
vn 0.000000 0.000000 -1.000000
vn 0.000000 0.000000 -1.000000
vn 0.000000 0.000000 -1.000000
vn 0.000000 0.000000 -1.000000
s off
g polySurface2
usemtl initialShadingGroup
f 20/20/20 21/21/21 22/22/22 23/23/23
g default
v 6.951100 27.283003 0.000000
v 18.016197 22.998776 0.000000
v 6.163558 16.002315 0.000000
v -5.408115 22.253082 0.000000
vt 0.000000 0.000000
vt 0.591613 0.000000
vt 1.000000 0.394648
vt 0.179945 0.473188
vn 0.000000 0.000000 -1.000000
vn 0.000000 0.000000 -1.000000
vn 0.000000 0.000000 -1.000000
vn 0.000000 0.000000 -1.000000
s off
g polySurface3
usemtl initialShadingGroup
f 24/25/24 25/26/25 26/27/26 27/24/27
g default
v -23.015885 27.502876 0.000000
v -5.889831 21.917911 0.000000
v -5.763716 11.954871 0.000000
v -6.920305 11.115186 0.000000
v -7.277090 19.269509 0.000000
v -13.330582 14.841130 0.000000
v -13.366514 6.200674 0.000000
v -14.123200 5.443987 0.000000
v -15.636572 5.443987 0.000000
v -15.600644 13.291826 0.000000
v -30.182853 20.937740 0.000000
v -30.308965 11.043326 0.000000
v -31.184581 11.738572 0.000000
v -31.213324 24.223902 0.000000
vt 0.194296 0.000000
vt 0.530303 0.000000
vt 1.000000 0.389483
vt 0.863636 0.743315
vt 0.813726 0.790553
vt 0.913547 0.463458
vt 0.640820 0.524955
vt 0.557932 0.796791
vt 0.520499 0.812834
vt 0.467023 0.791444
vt 0.548128 0.524064
vt 0.172014 0.120321
vt 0.042781 0.430481
vt 0.000000 0.434046
vn 0.000000 0.000000 -1.000000
vn 0.000000 0.000000 -1.000000
vn 0.000000 0.000000 -1.000000
vn 0.000000 0.000000 -1.000000
vn 0.000000 0.000000 -1.000000
vn 0.000000 0.000000 -1.000000
vn 0.000000 0.000000 -1.000000
vn 0.000000 0.000000 -1.000000
vn 0.000000 0.000000 -1.000000
vn 0.000000 0.000000 -1.000000
vn 0.000000 0.000000 -1.000000
vn 0.000000 0.000000 -1.000000
vn 0.000000 0.000000 -1.000000
vn 0.000000 0.000000 -1.000000
s off
g polySurface4
usemtl initialShadingGroup
f 28/29/28 29/30/29 30/31/30 31/32/31 32/33/32 33/34/33 34/35/34 35/36/35 36/37/36 37/38/37 38/39/38 39/40/39 40/41/40 41/28/41
g default
v -25.916518 18.800980 0.000000
v -24.277030 17.792066 0.000000
v -24.277030 14.386975 0.000000
v -25.159830 13.756403 0.000000
v -25.664289 13.756403 0.000000
vt 0.000000 0.000000
vt 0.462301 0.000000
vt 0.890873 0.696429
vt 0.789682 0.936508
vt 0.686507 1.000000
vn 0.000000 0.000000 -1.000000
vn 0.000000 0.000000 -1.000000
vn 0.000000 0.000000 -1.000000
vn 0.000000 0.000000 -1.000000
vn 0.000000 0.000000 -1.000000
s off
g polySurface5
usemtl initialShadingGroup
f 42/42/42 43/43/43 44/44/44 45/45/45 46/46/46
g default
v -10.008156 45.054584 0.000000
v -15.653550 46.355172 0.000000
v -15.653550 32.398371 0.000000
v -12.962346 30.867222 0.000000
v -12.663323 37.481757 0.000000
v -12.663323 29.011856 0.000000
v -10.307178 27.642817 0.000000
vt 0.000000 0.000000
vt 0.946019 0.000000
vt 1.000000 0.184861
vt 0.476478 0.194210
vt 0.797648 0.205368
vt 0.766586 0.357961
vt 0.023522 0.371230
vn 0.000000 0.000000 1.000000
vn 0.000000 0.000000 1.000000
vn 0.000000 0.000000 1.000000
vn 0.000000 0.000000 1.000000
vn 0.000000 0.000000 1.000000
vn 0.000000 0.000000 1.000000
vn 0.000000 0.000000 1.000000
s off
g polySurface6
usemtl initialShadingGroup
f 47/47/47 48/53/48 49/52/49 50/51/50 51/50/51 52/49/52 53/48/53
g default
v -12.699359 44.060255 0.000000
v -29.145605 45.854389 0.000000
v -28.846583 36.883712 0.000000
v -12.699359 32.398371 0.000000
vt 0.000000 0.000000
vt 0.928983 0.000000
vt 1.000000 0.650986
vt 0.071320 0.498938
vn 0.000000 0.000000 1.000000
vn 0.000000 0.000000 1.000000
vn 0.000000 0.000000 1.000000
vn 0.000000 0.000000 1.000000
s off
g polySurface7
usemtl initialShadingGroup
f 54/55/54 55/54/55 56/57/56 57/56/57
g default
v 0.285098 -1.554591 0.000000
v 28.984972 16.144038 0.000000
v 0.475163 -0.414199 0.000000
v -0.095033 44.083651 0.000000
v -0.855294 -0.224134 0.000000
v -32.976344 12.532796 0.000000
vt 0.441519 0.000000
vt 1.000000 0.000000
vt 0.453271 0.016432
vt 0.758552 0.662012
vt 0.433856 0.029645
vt 0.000000 0.419794
vn 0.000000 0.000000 1.000000
vn 0.000000 0.000000 1.000000
vn 0.000000 0.000000 1.000000
vn 0.000000 0.000000 1.000000
vn 0.000000 0.000000 1.000000
vn 0.000000 0.000000 1.000000
s off
g polySurface8
usemtl initialShadingGroup
f 58/58/58 59/59/59 60/60/60 61/61/61 62/62/62 63/63/63
