# This file uses centimeters as units for non-parametric coordinates.

mtllib view3.mtl
g default
v -5.033509 11.482926 0.000000
v 7.245927 15.527987 0.000000
v 25.797223 13.376182 0.000000
v 25.121381 16.868780 0.000000
v 27.134087 17.334461 0.000000
v 27.435493 13.207223 0.000000
v 27.736900 9.079984 0.000000
v 28.038306 4.952745 0.000000
v 28.339713 0.825507 0.000000
v 27.216940 -0.244951 0.000000
v 26.150412 4.411847 0.000000
v 17.194837 -2.494427 0.000000
v 17.119847 -6.277011 0.000000
v 15.107140 -8.192046 0.000000
v 14.716453 -7.377107 0.000000
v 14.115605 -1.368625 0.000000
v -1.540913 6.826128 0.000000
v -0.609554 -0.857588 0.000000
v -2.588690 0.306611 0.000000
vt 0.416228 0.000000
vt 1.000000 0.000000
vt 0.986778 0.035798
vt 0.859553 0.049830
vt 0.983037 0.585643
vt 0.797624 0.889395
vt 0.380679 0.845240
vt 0.330319 0.777823
vt 0.613957 0.780879
vt 0.204933 0.263681
vt 0.033428 0.265428
vt 0.000000 0.234775
vt 0.021703 0.198042
vt 0.299230 0.184602
vt 0.528330 0.043438
vt 0.354953 0.028220
vt 0.854057 0.000000
vt 0.708114 0.000000
vt 0.562171 0.000000
vn 0.000000 0.000000 -1.000000
vn 0.000000 0.000000 -1.000000
vn 0.000000 0.000000 -1.000000
vn 0.000000 0.000000 -1.000000
vn 0.000000 0.000000 -1.000000
vn 0.000000 0.000000 -1.000000
vn 0.000000 0.000000 -1.000000
vn 0.000000 0.000000 -1.000000
vn 0.000000 0.000000 -1.000000
vn 0.000000 0.000000 -1.000000
vn 0.000000 0.000000 -1.000000
vn 0.000000 0.000000 -1.000000
vn 0.000000 0.000000 -1.000000
vn 0.000000 0.000000 -1.000000
vn 0.000000 0.000000 -1.000000
vn 0.000000 0.000000 -1.000000
vn 0.000000 0.000000 -1.000000
vn 0.000000 0.000000 -1.000000
vn 0.000000 0.000000 -1.000000
s off
g bed
usemtl initialShadingGroup
f 1/6/1 2/5/2 3/4/3 4/3/4 5/2/5 6/17/6 7/18/7 8/19/8 9/1/9 10/16/10 11/15/11 12/14/12 13/13/13 14/12/14 15/11/15 16/10/16 17/9/17 18/8/18 19/7/19
g default
v 8.970685 6.408750 0.000000
v 18.535689 13.247404 0.000000
v 23.796342 12.109965 0.000000
v 14.522710 4.147896 0.000000
vt 0.369828 0.000000
vt 0.987500 0.000000
vt 0.686207 1.000000
vt 0.000000 0.914655
vn 0.000000 0.000000 -1.000000
vn 0.000000 0.000000 -1.000000
vn 0.000000 0.000000 -1.000000
vn 0.000000 0.000000 -1.000000
s off
g pillow
usemtl initialShadingGroup
f 20/23/20 21/20/21 22/21/22 23/22/23
g default
v 8.208315 14.935476 0.000000
v 21.197708 13.236331 0.000000
v 10.651469 4.556350 0.000000
v -3.389274 10.385722 0.000000
vt 0.380888 0.000000
vt 1.000000 0.000000
vt 0.766543 0.518392
vt 0.000000 0.303815
vn 0.000000 0.000000 -1.000000
vn 0.000000 0.000000 -1.000000
vn 0.000000 0.000000 -1.000000
vn 0.000000 0.000000 -1.000000
s off
g blanket
usemtl initialShadingGroup
f 24/24/24 25/25/25 26/26/26 27/27/27
g default
v 4.046639 7.440364 0.000000
v 13.999225 4.028048 0.000000
v 14.710124 -8.292514 0.000000
v 13.857046 -9.052495 0.000000
v 13.146147 0.921128 0.000000
v 3.512977 -7.820008 0.000000
v 3.405854 -16.675277 0.000000
v 2.417608 -17.954896 0.000000
v 1.920954 -16.248740 0.000000
v 1.885896 -8.724116 0.000000
v -8.572309 -1.342840 0.000000
v -7.896466 -11.153247 0.000000
v -9.033904 -9.731448 0.000000
v -9.744802 0.789857 0.000000
vt 0.525253 0.000000
vt 0.876058 0.000000
vt 1.000000 0.299208
vt 0.672673 0.745018
vt 0.348075 0.743380
vt 0.302211 0.711166
vt 0.603604 0.692329
vt 0.450450 0.416871
vt 0.055965 0.419601
vt 0.000000 0.366093
vt 0.037674 0.337428
vt 0.418782 0.331149
vt 0.794704 0.031395
vt 0.474474 0.029484
vn 0.000000 0.000000 -1.000000
vn 0.000000 0.000000 -1.000000
vn 0.000000 0.000000 -1.000000
vn 0.000000 0.000000 -1.000000
vn 0.000000 0.000000 -1.000000
vn 0.000000 0.000000 -1.000000
vn 0.000000 0.000000 -1.000000
vn 0.000000 0.000000 -1.000000
vn 0.000000 0.000000 -1.000000
vn 0.000000 0.000000 -1.000000
vn 0.000000 0.000000 -1.000000
vn 0.000000 0.000000 -1.000000
vn 0.000000 0.000000 -1.000000
vn 0.000000 0.000000 -1.000000
s off
g table
usemtl initialShadingGroup
f 28/30/28 29/29/29 30/28/30 31/41/31 32/40/32 33/39/33 34/38/34 35/37/35 36/36/36 37/35/37 38/34/38 39/33/39 40/32/40 41/31/41
g default
v 7.807523 -3.744731 0.000000
v 9.329431 -2.180754 0.000000
v 9.492646 -8.103224 0.000000
v 8.951974 -9.012396 0.000000
v 8.091883 -8.863205 0.000000
vt 0.725564 0.000000
vt 1.000000 0.000000
vt 0.313910 0.411654
vt 0.024436 0.543233
vt 0.000000 0.379700
vn 0.000000 0.000000 -1.000000
vn 0.000000 0.000000 -1.000000
vn 0.000000 0.000000 -1.000000
vn 0.000000 0.000000 -1.000000
vn 0.000000 0.000000 -1.000000
s off
g leg
usemtl initialShadingGroup
f 42/42/42 43/43/43 44/44/44 45/45/45 46/46/46
g default
v 15.582819 31.111227 0.000000
v -0.213165 28.269579 0.000000
v 2.707560 14.193779 0.000000
v 16.499001 20.198439 0.000000
vt 0.024440 0.000000
vt 1.000000 0.000000
vt 0.924017 0.595371
vt 0.000000 0.846259
vn 0.000000 0.000000 1.000000
vn 0.000000 0.000000 1.000000
vn 0.000000 0.000000 1.000000
vn 0.000000 0.000000 1.000000
s off
g window
usemtl initialShadingGroup
f 47/48/47 48/47/48 49/50/49 50/49/50
g default
v 27.808354 1.053607 0.000000
v -11.520165 9.649561 0.000000
v 27.666174 1.764506 0.000000
v 25.777715 37.372563 0.000000
v 29.087972 0.769248 0.000000
v 1.526810 -17.528502 0.000000
vt 0.397832 0.000000
vt 1.000000 0.000000
vt 0.403141 0.016942
vt 0.496413 0.429875
vt 0.395757 0.023415
vt 0.000000 0.335667
vn 0.000000 0.000000 -1.000000
vn 0.000000 0.000000 -1.000000
vn 0.000000 0.000000 -1.000000
vn 0.000000 0.000000 -1.000000
vn 0.000000 0.000000 -1.000000
vn 0.000000 0.000000 -1.000000
s off
g corner
usemtl initialShadingGroup
f 51/53/51 52/54/52 53/55/53 54/56/54 55/51/55 56/52/56
g default
v 15.788102 32.064713 0.000000
v 12.517966 31.945518 0.000000
v 13.371046 18.082010 0.000000
v 15.219383 19.121286 0.000000
v 15.077203 23.030258 0.000000
v 15.788102 16.070459 0.000000
v 17.778620 17.422141 0.000000
vt 0.446124 0.000000
vt 0.714849 0.000000
vt 0.139290 1.000000
vt 0.033509 0.921813
vt 0.263798 0.531209
vt 0.064717 0.816360
vt 0.000000 0.698423
vn 0.000000 0.000000 1.000000
vn 0.000000 0.000000 1.000000
vn 0.000000 0.000000 1.000000
vn 0.000000 0.000000 1.000000
vn 0.000000 0.000000 1.000000
vn 0.000000 0.000000 1.000000
vn 0.000000 0.000000 1.000000
s off
g curtain
usemtl initialShadingGroup
f 57/58/57 58/57/58 59/63/59 60/62/60 61/61/61 62/60/62 63/59/63
