# This file uses centimeters as units for non-parametric coordinates.

mtllib view3.mtl
g default
v -33.410582 6.448284 0.000000
v -21.131146 10.493345 0.000000
v -2.579850 8.341540 0.000000
v -3.255692 11.834138 0.000000
v -1.242986 12.299819 0.000000
v -0.941580 8.172581 0.000000
v -0.640173 4.045342 0.000000
v -0.338767 -0.081897 0.000000
v -0.037360 -4.209135 0.000000
v -1.160133 -5.279593 0.000000
v -2.226661 -0.622795 0.000000
v -11.182236 -7.529069 0.000000
v -11.257226 -11.311653 0.000000
v -13.269933 -13.226688 0.000000
v -13.660620 -12.411749 0.000000
v -14.261468 -6.403267 0.000000
v -29.917986 1.791486 0.000000
v -28.986627 -5.892230 0.000000
v -30.965763 -4.728031 0.000000
vt 0.416228 0.000000
vt 1.000000 0.000000
vt 0.986778 0.035798
vt 0.859553 0.049830
vt 0.983037 0.585643
vt 0.797624 0.889395
vt 0.380679 0.845240
vt 0.330319 0.777823
vt 0.613957 0.780879
vt 0.204933 0.263681
vt 0.033428 0.265428
vt 0.000000 0.234775
vt 0.021703 0.198042
vt 0.299230 0.184602
vt 0.528330 0.043438
vt 0.354953 0.028220
vt 0.854057 0.000000
vt 0.708114 0.000000
vt 0.562171 0.000000
vn 0.000000 0.000000 -1.000000
vn 0.000000 0.000000 -1.000000
vn 0.000000 0.000000 -1.000000
vn 0.000000 0.000000 -1.000000
vn 0.000000 0.000000 -1.000000
vn 0.000000 0.000000 -1.000000
vn 0.000000 0.000000 -1.000000
vn 0.000000 0.000000 -1.000000
vn 0.000000 0.000000 -1.000000
vn 0.000000 0.000000 -1.000000
vn 0.000000 0.000000 -1.000000
vn 0.000000 0.000000 -1.000000
vn 0.000000 0.000000 -1.000000
vn 0.000000 0.000000 -1.000000
vn 0.000000 0.000000 -1.000000
vn 0.000000 0.000000 -1.000000
vn 0.000000 0.000000 -1.000000
vn 0.000000 0.000000 -1.000000
vn 0.000000 0.000000 -1.000000
s off
g bed
usemtl initialShadingGroup
f 1/6/1 2/5/2 3/4/3 4/3/4 5/2/5 6/17/6 7/18/7 8/19/8 9/1/9 10/16/10 11/15/11 12/14/12 13/13/13 14/12/14 15/11/15 16/10/16 17/9/17 18/8/18 19/7/19
g default
v -19.406388 1.374108 0.000000
v -9.841384 8.212762 0.000000
v -4.580731 7.075323 0.000000
v -13.854363 -0.886746 0.000000
vt 0.369828 0.000000
vt 0.987500 0.000000
vt 0.686207 1.000000
vt 0.000000 0.914655
vn 0.000000 0.000000 -1.000000
vn 0.000000 0.000000 -1.000000
vn 0.000000 0.000000 -1.000000
vn 0.000000 0.000000 -1.000000
s off
g pillow
usemtl initialShadingGroup
f 20/23/20 21/20/21 22/21/22 23/22/23
g default
v -20.168758 9.900834 0.000000
v -7.179365 8.201689 0.000000
v -17.725604 -0.478292 0.000000
v -31.766347 5.351080 0.000000
vt 0.380888 0.000000
vt 1.000000 0.000000
vt 0.766543 0.518392
vt 0.000000 0.303815
vn 0.000000 0.000000 -1.000000
vn 0.000000 0.000000 -1.000000
vn 0.000000 0.000000 -1.000000
vn 0.000000 0.000000 -1.000000
s off
g blanket
usemtl initialShadingGroup
f 24/24/24 25/25/25 26/26/26 27/27/27
g default
v -24.330434 2.405722 0.000000
v -14.377848 -1.006594 0.000000
v -13.666949 -13.327156 0.000000
v -14.520027 -14.087137 0.000000
v -15.230927 -4.113514 0.000000
v -24.864097 -12.854650 0.000000
v -24.971219 -21.709919 0.000000
v -25.959465 -22.989538 0.000000
v -26.456119 -21.283382 0.000000
v -26.491177 -13.758758 0.000000
v -36.949382 -6.377482 0.000000
v -36.273539 -16.187889 0.000000
v -37.410978 -14.766090 0.000000
v -38.121875 -4.244785 0.000000
vt 0.525253 0.000000
vt 0.876058 0.000000
vt 1.000000 0.299208
vt 0.672673 0.745018
vt 0.348075 0.743380
vt 0.302211 0.711166
vt 0.603604 0.692329
vt 0.450450 0.416871
vt 0.055965 0.419601
vt 0.000000 0.366093
vt 0.037674 0.337428
vt 0.418782 0.331149
vt 0.794704 0.031395
vt 0.474474 0.029484
vn 0.000000 0.000000 -1.000000
vn 0.000000 0.000000 -1.000000
vn 0.000000 0.000000 -1.000000
vn 0.000000 0.000000 -1.000000
vn 0.000000 0.000000 -1.000000
vn 0.000000 0.000000 -1.000000
vn 0.000000 0.000000 -1.000000
vn 0.000000 0.000000 -1.000000
vn 0.000000 0.000000 -1.000000
vn 0.000000 0.000000 -1.000000
vn 0.000000 0.000000 -1.000000
vn 0.000000 0.000000 -1.000000
vn 0.000000 0.000000 -1.000000
vn 0.000000 0.000000 -1.000000
s off
g table
usemtl initialShadingGroup
f 28/30/28 29/29/29 30/28/30 31/41/31 32/40/32 33/39/33 34/38/34 35/37/35 36/36/36 37/35/37 38/34/38 39/33/39 40/32/40 41/31/41
g default
v -20.569550 -8.779373 0.000000
v -19.047642 -7.215396 0.000000
v -18.884427 -13.137866 0.000000
v -19.425099 -14.047038 0.000000
v -20.285190 -13.897847 0.000000
vt 0.725564 0.000000
vt 1.000000 0.000000
vt 0.313910 0.411654
vt 0.024436 0.543233
vt 0.000000 0.379700
vn 0.000000 0.000000 -1.000000
vn 0.000000 0.000000 -1.000000
vn 0.000000 0.000000 -1.000000
vn 0.000000 0.000000 -1.000000
vn 0.000000 0.000000 -1.000000
s off
g leg
usemtl initialShadingGroup
f 42/42/42 43/43/43 44/44/44 45/45/45 46/46/46
g default
v -12.794254 26.076585 0.000000
v -28.590238 23.234937 0.000000
v -25.669513 9.159137 0.000000
v -11.878072 15.163797 0.000000
vt 0.024440 0.000000
vt 1.000000 0.000000
vt 0.924017 0.595371
vt 0.000000 0.846259
vn 0.000000 0.000000 1.000000
vn 0.000000 0.000000 1.000000
vn 0.000000 0.000000 1.000000
vn 0.000000 0.000000 1.000000
s off
g window
usemtl initialShadingGroup
f 47/48/47 48/47/48 49/50/49 50/49/50
g default
v -0.568719 -3.981035 0.000000
v -39.897238 4.614919 0.000000
v -0.710899 -3.270136 0.000000
v -2.599358 32.337921 0.000000
v 0.710899 -4.265394 0.000000
v -26.850263 -22.563144 0.000000
vt 0.397832 0.000000
vt 1.000000 0.000000
vt 0.403141 0.016942
vt 0.496413 0.429875
vt 0.395757 0.023415
vt 0.000000 0.335667
vn 0.000000 0.000000 -1.000000
vn 0.000000 0.000000 -1.000000
vn 0.000000 0.000000 -1.000000
vn 0.000000 0.000000 -1.000000
vn 0.000000 0.000000 -1.000000
vn 0.000000 0.000000 -1.000000
s off
g corner
usemtl initialShadingGroup
f 51/53/51 52/54/52 53/55/53 54/56/54 55/51/55 56/52/56
g default
v -12.588971 27.030071 0.000000
v -15.859107 26.910876 0.000000
v -15.006027 13.047368 0.000000
v -13.157690 14.086644 0.000000
v -13.299870 17.995616 0.000000
v -12.588971 11.035817 0.000000
v -10.598453 12.387499 0.000000
vt 0.446124 0.000000
vt 0.714849 0.000000
vt 0.139290 1.000000
vt 0.033509 0.921813
vt 0.263798 0.531209
vt 0.064717 0.816360
vt 0.000000 0.698423
vn 0.000000 0.000000 1.000000
vn 0.000000 0.000000 1.000000
vn 0.000000 0.000000 1.000000
vn 0.000000 0.000000 1.000000
vn 0.000000 0.000000 1.000000
vn 0.000000 0.000000 1.000000
vn 0.000000 0.000000 1.000000
s off
g curtain
usemtl initialShadingGroup
f 57/58/57 58/57/58 59/63/59 60/62/60 61/61/61 62/60/62 63/59/63
