# This file uses centimeters as units for non-parametric coordinates.

mtllib blanket.mtl
g default
v -2.160494 4.629630 0.000000
v 8.333333 -0.061728 0.000000
v -3.209877 -7.777778 0.000000
v -13.271605 0.061728 0.000000
vt 0.418695 0.000000
vt 1.000000 0.000000
vt 0.626333 0.594481
vt 0.000000 0.440220
vn 0.000000 0.000000 -1.000000
vn 0.000000 0.000000 -1.000000
vn 0.000000 0.000000 -1.000000
vn 0.000000 0.000000 -1.000000
s off
g polySurface3
usemtl initialShadingGroup
f 1/1/1 2/2/2 3/3/3 4/4/4
