# This file uses centimeters as units for non-parametric coordinates.

mtllib curtain.mtl
g default
v -8.086420 9.444445 0.000000
v -2.345679 8.333333 0.000000
v -4.259259 -6.172840 0.000000
v -5.925926 -6.296296 0.000000
v -5.617284 1.790123 0.000000
v -6.234568 -7.530864 0.000000
v -9.320988 -7.283951 0.000000
vt 0.000000 0.000000
vt 0.351015 0.000000
vt 0.403709 0.876775
vt 0.306889 0.903063
vt 0.232837 0.422955
vt 0.302781 0.979345
vt 0.118061 1.000000
vn 0.000000 0.000000 -1.000000
vn 0.000000 0.000000 -1.000000
vn 0.000000 0.000000 -1.000000
vn 0.000000 0.000000 -1.000000
vn 0.000000 0.000000 -1.000000
vn 0.000000 0.000000 -1.000000
vn 0.000000 0.000000 -1.000000
s off
g polySurface2
usemtl initialShadingGroup
f 1/1/1 2/2/2 3/3/3 4/4/4 5/5/5 6/6/6 7/7/7
