# This file uses centimeters as units for non-parametric coordinates.

mtllib desk_leg.mtl
g default
v -4.266209 0.000000 0.334605
v -4.182558 0.000000 4.684464
v -3.178744 0.000000 5.437325
v -2.760488 0.000000 4.935418
v -2.676837 0.000000 0.752860
vt 0.000000 0.000000
vt 0.849294 0.000000
vt 1.000000 0.193093
vt 0.903611 0.276609
vt 0.087598 0.308634
vn 0.000000 1.000000 0.000000
vn 0.000000 1.000000 0.000000
vn 0.000000 1.000000 0.000000
vn 0.000000 1.000000 0.000000
vn 0.000000 1.000000 0.000000
s off
g polySurface2
usemtl initialShadingGroup
f 1/1/1 2/2/2 3/3/3 4/4/4 5/5/5
